<svg width="232" height="40" viewBox="0 0 232 40" fill="none" xmlns="http://www.w3.org/2000/svg">
<g clip-path="url(#clip0_131_6189)">
<path d="M86.0599 11.8446C86.4576 11.8248 86.9092 11.7771 87.2858 11.9276C87.8433 12.1504 88.3134 12.5503 88.5436 13.1171C88.7474 13.6194 88.7402 14.318 88.5238 14.8086C88.2347 15.4643 87.7048 15.7949 87.0635 16.0498C86.6571 16.0581 86.254 16.0633 85.8653 15.9274C85.3741 15.7556 84.968 15.3719 84.7437 14.9062C84.4482 14.2926 84.4489 13.7202 84.6801 13.0916C84.921 12.4367 85.4678 12.1248 86.0599 11.8446Z" fill="#0B7CAC"/>
<path d="M86.0671 17.3572C86.4242 17.3373 86.7887 17.3261 87.1335 17.4367C87.5962 17.5851 87.9603 17.8543 88.1809 18.2936C88.5474 19.0233 88.561 27.9568 88.2543 28.8743C88.0594 29.4572 87.6313 29.7342 87.1132 29.9887C86.7687 30.023 86.3139 30.0411 85.9815 29.9295C85.5831 29.7958 85.1842 29.473 85.0014 29.0894C84.5741 28.1924 84.5627 19.338 84.9636 18.2978C85.1538 17.8044 85.6167 17.5623 86.0671 17.3572Z" fill="#0B7CAC"/>
<path d="M147.599 17.1606C148.209 17.2178 148.753 17.2663 149.203 17.728C149.506 18.0388 149.675 18.4781 149.662 18.912C149.596 21.0603 146.833 20.1326 145.707 21.2139C145.393 21.5154 145.255 21.8213 145.15 22.2374C144.976 22.9263 145.031 23.6748 145.029 24.382L145.017 28.1776C145.006 28.69 144.828 29.2047 144.448 29.5596C143.959 30.0159 143.376 30.0263 142.747 30.0114C142.464 29.887 142.209 29.7547 141.979 29.5462C141.581 29.1859 141.44 28.6438 141.412 28.1212L141.395 22.6606C141.393 21.3933 141.276 19.9795 141.427 18.7273C141.469 18.3843 141.559 17.9827 141.799 17.723C142.008 17.4978 142.317 17.3461 142.625 17.3372C143.338 17.3167 143.834 17.8589 144.313 18.3092C145.369 17.8842 146.471 17.3421 147.599 17.1606Z" fill="#0B7CAC"/>
<path d="M179.113 12.0567L179.338 12.0499C179.901 12.0403 180.397 12.099 180.82 12.5152C181.709 13.3913 181.389 15.9151 181.389 17.1168C182.108 17.1273 183.263 17.1135 183.845 17.5699C184.176 17.8303 184.359 18.2062 184.401 18.6203C184.447 19.0739 184.343 19.5315 184.047 19.887C183.366 20.7045 182.364 20.4714 181.426 20.5456C181.421 22.3217 181.225 24.4034 181.498 26.1418C181.526 26.3166 181.605 26.5644 181.733 26.6901C182 26.952 182.663 26.9411 183.016 27.0019C183.517 27.0882 183.97 27.1775 184.317 27.5821C184.605 27.9189 184.678 28.3248 184.642 28.7553C184.597 29.3068 184.313 29.6382 183.914 29.9798C183.755 30.0695 183.606 30.1064 183.424 30.1198C182.159 30.2142 180.122 30.2432 179.131 29.3768C178.494 28.8201 178.267 28.1037 178.106 27.2999C177.658 25.0655 177.911 22.7982 177.762 20.5431C177.269 20.5358 176.714 20.56 176.259 20.3478C175.855 20.1602 175.617 19.919 175.471 19.5001C175.278 18.9486 175.304 18.37 175.558 17.8435C176.192 17.2821 177.047 17.2266 177.852 17.0904C177.816 15.9313 177.574 14.2108 177.942 13.114C178.129 12.5568 178.623 12.2976 179.113 12.0567Z" fill="#0B7CAC"/>
<path d="M97.7808 17.1671C98.7387 17.1416 99.7895 17.281 100.658 17.7017C101.755 18.2335 102.527 19.1135 102.923 20.2655C103.047 20.6264 103.158 21.0401 103.202 21.4187C103.291 22.202 103.247 23.0183 103.272 23.8069L103.352 27.3261C103.351 27.9093 103.397 28.5654 103.127 29.1011C102.929 29.4945 102.567 29.7891 102.151 29.9263C101.688 30.0792 101.119 30.048 100.687 29.8244C100.265 29.6056 99.9587 29.2267 99.8219 28.7714C99.6715 28.2704 99.7378 27.6506 99.7361 27.1295C99.7302 25.4906 99.9987 23.2998 99.5096 21.756C99.3716 21.3205 99.0753 20.9602 98.6677 20.7496C97.9631 20.3856 97.1114 20.45 96.3786 20.6843L96.3128 20.727C95.3357 21.3753 95.3107 22.2406 95.2274 23.2969L95.1163 26.8345C95.1153 27.4018 95.1997 28.1704 95.077 28.716C94.9865 29.1194 94.6902 29.5391 94.339 29.7559C93.9376 30.0037 93.324 30.0792 92.872 29.9674C92.4392 29.8606 92.016 29.5613 91.7887 29.1745C91.6606 28.9566 91.6067 28.6829 91.5879 28.4336C91.4264 26.3077 91.5686 24.0605 91.5713 21.9232C91.5726 20.8661 91.3705 19.2767 91.6376 18.2764C91.718 17.9761 91.9475 17.6764 92.2168 17.5228C92.5465 17.3349 93.0105 17.2893 93.374 17.3957C93.8842 17.545 94.1567 18.071 94.3922 18.5057C95.5409 17.7105 96.3783 17.3181 97.7808 17.1671Z" fill="#0B7CAC"/>
<path d="M152.518 11.9534C153.023 11.997 153.53 12.0434 153.931 12.3902C154.223 12.6428 154.404 12.9751 154.477 13.3519C154.634 14.1629 154.535 15.151 154.536 15.9804C154.539 18.1737 154.458 20.397 154.603 22.5854L154.708 22.4567L157.457 19.4373C158.024 18.8172 158.613 18.0583 159.307 17.5801C159.565 17.4017 159.884 17.2846 160.2 17.2717C160.553 17.2573 161.006 17.5013 161.264 17.7326C161.624 18.0557 161.821 18.4373 161.845 18.924C161.86 19.2355 161.79 19.5107 161.637 19.7834C161.375 20.2518 160.912 20.67 160.552 21.0698L158.441 23.405L160.674 26.0609C161.227 26.7296 161.874 27.3286 161.957 28.234L161.955 28.301C161.935 28.7744 161.738 29.1931 161.385 29.5106C161.036 29.8249 160.526 30.0552 160.052 30.0245C159.059 29.9597 155.488 25.4775 154.627 24.5131C154.416 25.4552 154.555 26.7096 154.533 27.6879C154.523 28.167 154.553 28.6371 154.319 29.0739C154.081 29.5178 153.723 29.794 153.239 29.9355C152.779 30.07 152.341 30.0356 151.918 29.8054C151.499 29.5771 151.163 29.1975 151.035 28.7311C150.901 28.2377 150.976 27.5705 150.974 27.0528L150.968 23.5191C150.966 20.2346 150.79 16.8366 150.987 13.5633C151.003 13.3016 151.079 13.0269 151.215 12.8013C151.523 12.2893 151.965 12.0971 152.518 11.9534Z" fill="#0B7CAC"/>
<path d="M167.263 17.2595L168.219 17.1983C169.95 17.1559 171.586 17.5989 172.861 18.8167C174.025 19.9279 174.594 21.4905 174.626 23.0839C174.634 23.5211 174.528 24.0625 174.21 24.3833C173.478 25.1211 167.496 24.8372 166.097 24.854C166.173 25.2336 166.252 25.6516 166.438 25.9936C166.64 26.3661 167.028 26.623 167.399 26.8068C168.608 27.405 169.859 27.126 171.087 26.7766C171.583 26.6356 172.192 26.4076 172.705 26.5605L172.736 26.5698C172.819 26.5904 172.898 26.621 172.973 26.6643C173.306 26.8572 173.526 27.1785 173.616 27.5467C173.709 27.9254 173.695 28.3183 173.479 28.6547C173.022 29.3625 171.809 29.8657 171.021 30.0396C168.966 30.4932 166.684 30.2694 164.889 29.1174C163.65 28.3228 162.972 27.1765 162.667 25.7626C162.265 23.9046 162.472 21.2177 163.523 19.6001C164.428 18.2079 165.681 17.5952 167.263 17.2595ZM168.332 20.5408C167.618 20.6653 166.952 20.8373 166.512 21.4662C166.324 21.7341 166.213 22.0997 166.112 22.4092L168.917 22.425L171.161 22.4095C170.847 21.6603 170.512 21.0766 169.712 20.7512C169.289 20.5787 168.787 20.5271 168.332 20.5408Z" fill="#0B7CAC"/>
<path d="M61.8076 11.8642C62.4373 11.7978 63.1412 11.7653 63.7666 11.8552C64.9891 12.0309 67.1014 12.885 67.8561 13.9027C68.1589 14.3108 68.2009 14.7832 68.1195 15.2735C68.0542 15.6653 67.7127 16.0826 67.3976 16.307C66.2355 17.135 64.4999 15.5669 63.2074 15.3449C61.7819 15.1 60.326 15.2705 59.1261 16.1193C57.8922 16.9923 57.0281 18.4566 56.7813 19.9403C56.4939 21.6681 56.7806 23.2854 57.8076 24.7207C59.34 26.8617 62.2414 27.5952 64.6075 26.4173C65.3101 26.0673 65.9472 25.3709 66.6629 25.111C67.0969 24.9532 67.5065 25.0301 67.9472 25.104L68.1129 25.2208C68.5036 25.5086 68.7774 25.8507 68.8454 26.3428C68.9023 26.7531 68.8301 27.1537 68.5758 27.4864C67.5487 28.829 65.3773 29.8423 63.733 30.0772C61.2932 30.4262 58.6549 29.8771 56.67 28.3814C54.6069 26.8268 53.4688 24.5531 53.1216 22.0301C52.8114 19.7761 53.4265 17.4122 54.8082 15.6C56.5528 13.3124 59.0274 12.2432 61.8076 11.8642Z" fill="#0B7CAC"/>
<path d="M194.126 11.8628C196.226 11.6478 198.606 12.098 200.287 13.439C200.708 13.7749 201.009 14.1845 201.065 14.7348C201.108 15.1588 200.957 15.6462 200.685 15.9736C199.525 17.3711 198.055 15.9277 196.796 15.4995C196.052 15.2464 195.243 15.2017 194.466 15.2764C193.055 15.4119 191.825 16.0315 190.924 17.1313C189.899 18.3812 189.422 20.3149 189.586 21.8997C189.738 23.366 190.56 24.83 191.702 25.7572C193.462 27.1869 195.896 27.3751 197.861 26.2236C198.534 25.8297 199.227 25.0929 200.02 25.0165L200.06 25.013C200.449 24.9856 200.836 25.0961 201.151 25.3259C201.501 25.5806 201.697 25.9897 201.762 26.4101C201.819 26.7882 201.648 27.2631 201.419 27.5616C200.354 28.9539 198.013 29.8658 196.332 30.092C193.887 30.4207 191.5 29.821 189.541 28.323C187.616 26.8513 186.372 24.5517 186.061 22.1612C185.75 19.7697 186.306 17.3791 187.79 15.4533C189.38 13.3901 191.549 12.2027 194.126 11.8628Z" fill="#0B7CAC"/>
<path d="M75.3337 17.264C76.9543 17.0983 78.4102 17.2994 79.8003 18.2002C81.3391 19.1973 82.2106 20.6969 82.5833 22.4579C82.9402 24.144 82.5072 25.9145 81.5755 27.3424C80.564 28.8931 79.0396 29.8061 77.2498 30.1828C75.6594 30.349 74.1231 30.0601 72.7863 29.1602C71.2367 28.1165 70.265 26.5253 69.9168 24.7055C69.6118 23.1119 70.0328 21.3341 70.9399 20.0024C71.9749 18.4823 73.557 17.6029 75.3337 17.264ZM75.9101 20.645C75.0564 20.834 74.3976 21.1467 73.9123 21.9057C73.4368 22.6494 73.3309 23.682 73.5216 24.5318C73.7046 25.3484 74.3048 26.1558 75.0126 26.5975C75.559 26.9383 76.1139 26.9668 76.7396 26.9492C77.6576 26.6364 78.2989 26.1628 78.7342 25.2749C79.1254 24.4772 79.1944 23.3529 78.9014 22.5096C78.6548 21.8 78.111 21.1675 77.4316 20.8453C76.9291 20.6069 76.4545 20.6052 75.9101 20.645Z" fill="#0B7CAC"/>
<path d="M208.083 17.158C210.043 17.0032 211.296 17.7447 212.8 18.8597C212.918 18.3543 213.096 17.7532 213.564 17.469C213.856 17.2924 214.209 17.2219 214.541 17.3051C214.915 17.3986 215.263 17.6269 215.462 17.962C215.594 18.1853 215.659 18.4645 215.682 18.7207C215.876 20.8311 215.702 23.1197 215.7 25.247C215.699 26.3431 215.906 27.9103 215.631 28.9401C215.54 29.2839 215.279 29.6645 214.962 29.8388C214.63 30.0223 214.168 30.052 213.81 29.9432C213.144 29.7406 212.999 29.1926 212.705 28.6399L212.371 28.8872C211.491 29.4973 210.638 29.9189 209.574 30.0985C208.085 30.3498 206.633 30.0634 205.398 29.1797C203.937 28.1339 203.099 26.5516 202.816 24.8008C202.525 23.0001 202.882 21.1101 203.962 19.6221C205.025 18.1569 206.324 17.4421 208.083 17.158ZM208.884 20.5332C207.969 20.7499 207.287 21.1144 206.788 21.9392C206.353 22.6587 206.269 23.7752 206.475 24.578C206.691 25.4211 207.081 26.1161 207.849 26.5662C208.435 26.9102 208.933 26.9636 209.599 26.9765C210.543 26.6211 211.265 26.0874 211.695 25.1491C212.082 24.3034 212.089 23.3381 211.764 22.4739C211.505 21.7828 210.933 21.1209 210.253 20.814C209.812 20.6142 209.365 20.5541 208.884 20.5332Z" fill="#0B7CAC"/>
<path d="M130.891 17.1679L130.966 17.1625C132.811 17.0623 134.129 17.7818 135.453 18.9694C135.521 18.6329 135.582 18.2183 135.759 17.9215C135.95 17.6013 136.234 17.3996 136.594 17.3124C136.96 17.2236 137.275 17.2769 137.595 17.4762C137.967 17.7084 138.199 18.0254 138.291 18.4541C138.401 18.9715 138.353 19.5575 138.355 20.0853L138.361 22.9127C138.362 24.7575 138.54 26.809 138.325 28.6342C138.291 28.924 138.197 29.2089 138.033 29.4518C137.838 29.7419 137.531 29.9093 137.191 29.9741C136.656 30.0762 135.985 29.8947 135.726 29.3756C135.605 29.131 135.541 28.8046 135.307 28.6478L134.86 28.9678C134.027 29.5514 133.216 30.0258 132.189 30.1519C130.573 30.35 129.021 30.005 127.734 28.9888C126.463 27.9855 125.59 26.263 125.406 24.6645C125.186 22.7519 125.645 20.7974 126.853 19.2763C127.915 17.9388 129.236 17.3579 130.891 17.1679ZM131.684 20.5309C130.732 20.7255 130.042 21.0222 129.491 21.8539C128.995 22.6036 128.937 23.707 129.113 24.5632C129.273 25.341 129.7 26.078 130.375 26.5184C130.923 26.8765 131.485 26.9584 132.131 26.9703C133.087 26.6564 133.789 26.215 134.254 25.2977C134.642 24.533 134.784 23.5582 134.51 22.7342C134.241 21.9252 133.729 21.2132 132.949 20.8303C132.551 20.6352 132.122 20.5666 131.684 20.5309Z" fill="#0B7CAC"/>
<path d="M224.709 17.2636C225.817 17.1512 226.92 17.151 227.96 17.5978C229.46 18.242 230.599 19.4133 231.198 20.9342C231.876 22.6528 231.979 24.7514 231.227 26.4564C230.598 27.8846 229.33 29.3434 227.844 29.9137C226.026 30.6119 224.156 30.0767 222.456 29.3197L222.449 32.4516C222.462 33.0224 222.454 33.6746 222.303 34.2278C222.185 34.6609 221.874 35.0004 221.489 35.221C221.106 35.4401 220.535 35.4965 220.119 35.3763C219.725 35.2626 219.299 34.9752 219.097 34.6116C218.913 34.281 218.846 33.8613 218.822 33.4884C218.643 30.6918 218.802 27.7782 218.803 24.971L218.806 20.5508C218.807 19.8327 218.72 18.9194 218.926 18.2328C219.031 17.8816 219.227 17.6579 219.554 17.4919C219.96 17.2862 220.353 17.3143 220.772 17.4568C221.193 17.6004 221.479 18.248 221.659 18.6174C222.744 18.0918 223.509 17.5671 224.709 17.2636ZM225.038 20.5303C224.132 20.7081 223.481 21.0539 222.955 21.8326C222.452 22.5795 222.327 23.5888 222.498 24.4634C222.656 25.2693 223.201 26.1005 223.886 26.5523C224.46 26.9304 225.046 26.9614 225.712 26.9646C226.69 26.6178 227.318 26.1257 227.772 25.1708C228.187 24.2959 228.168 23.3552 227.848 22.4543C227.592 21.7348 227.139 21.1535 226.44 20.8275C225.991 20.6183 225.526 20.5651 225.038 20.5303Z" fill="#0B7CAC"/>
<path d="M106.563 12.1041C106.6 12.0849 106.639 12.0661 106.68 12.0578C107 11.9922 107.216 12.1114 107.463 12.3016C108.002 12.7154 108.495 13.4051 108.948 13.9155L112.487 17.8848C113.197 18.6777 113.893 19.6029 114.77 20.2148C115.637 19.5407 116.347 18.6355 117.075 17.8175L120.462 14.0199C120.977 13.4445 121.655 12.4975 122.348 12.1639C122.662 12.0127 122.824 12.0326 123.134 12.141C123.274 12.3543 123.326 12.5664 123.344 12.8168C123.555 15.6765 123.381 18.6749 123.381 21.5474L123.379 25.866C123.378 26.7284 123.426 27.6296 123.321 28.4858C123.276 28.851 123.15 29.1807 122.904 29.4604C122.574 29.8348 122.144 29.9879 121.657 30.0144C121.173 30.0406 120.734 29.9184 120.373 29.5861C119.741 29.0039 119.776 28.0933 119.75 27.3034L119.731 20.402L115.702 24.7407C115.41 25.0086 115.088 25.2537 114.672 25.2327C113.894 25.1928 110.468 21.1587 109.795 20.4279L109.79 25.3932C109.787 26.4289 110.013 28.5916 109.343 29.3944C109.047 29.75 108.509 30.0384 108.039 30.078C107.599 30.1148 107.093 29.868 106.765 29.5833C106.385 29.2529 106.206 28.8189 106.173 28.3218C106.106 27.3271 106.162 26.2926 106.161 25.2923L106.162 19.2874L106.162 15.0719C106.162 14.3563 106.107 13.5799 106.183 12.8696C106.217 12.5501 106.356 12.3424 106.563 12.1041Z" fill="#0B7CAC"/>
<path d="M18.1494 39.9082C16.9707 39.6152 15.7486 39.3993 14.5955 39.0187C9.98436 37.4965 6.20824 34.4902 3.70574 30.3339C2.29334 27.9879 1.56257 25.5316 1.14359 22.8387C0.948796 21.5867 0.787711 20.498 0.848259 19.2222C0.870723 18.7488 1.00576 18.3116 1.07721 17.847C1.22214 16.9047 1.33946 15.9687 1.57046 15.0418C2.80243 10.0986 6.08861 5.7355 10.4497 3.11397C13.3541 1.36812 17.1173 0.194174 20.5352 0.21996C22.002 0.231026 23.6949 0.522885 25.1205 0.879699C30.1734 2.1443 34.5797 5.38872 37.2544 9.85806C39.0533 12.8639 39.9622 16.2173 40.0277 19.7144C40.049 20.851 40.0416 21.9854 39.7631 23.095C39.3597 24.7026 38.3233 26.2567 36.8817 27.1152C35.4784 27.9506 33.9075 28.3393 32.296 27.9241C30.9017 27.565 29.7186 26.7204 28.984 25.4728C27.68 23.2571 28.0272 20.3039 27.864 17.8394L24.9268 22.5254C23.8918 24.1816 22.2377 27.6093 20.2187 28.0465C19.5841 28.1838 18.926 28.1326 18.3737 27.7703C17.5861 27.2536 17.2326 26.4299 17.0537 25.539C16.5558 23.0608 17.0569 20.4544 16.7458 17.9683L8.61824 30.922C11.0333 33.958 15.0336 35.7777 18.8354 36.2065C22.7672 36.6502 26.9952 35.3953 30.0833 32.9272C30.7951 32.3584 31.7074 31.3491 32.6907 31.4601C33.197 31.5173 33.6963 31.799 34.0047 32.2016C34.2837 32.5656 34.4142 33.0615 34.3445 33.5168C34.1714 34.6455 32.6413 35.6946 31.7514 36.3319C28.9373 38.3472 26.0165 39.1423 22.6974 39.9082H18.1494ZM20.2411 3.97466C15.8664 4.22879 11.7207 5.90019 8.76531 9.21513C5.70013 12.6533 4.3119 16.8259 4.5784 21.4087C4.69993 23.499 5.40821 25.7238 6.3819 27.5687L12.7087 17.4969C13.8281 15.706 14.9335 13.5912 16.3221 12.0093C16.6188 11.6712 17.0087 11.399 17.4515 11.2992C18.0694 11.1598 18.7736 11.2368 19.311 11.5804C19.8413 11.9194 20.1956 12.5265 20.3238 13.1336C20.6519 14.6876 20.5052 16.6032 20.4936 18.1951L20.5419 22.6572L23.8117 17.4599C24.4874 16.383 25.1435 15.1201 26.0131 14.1893C26.5441 13.621 27.3075 13.0543 28.0809 12.8797C28.7931 12.7188 29.5049 12.8193 30.1152 13.2138C30.8903 13.7149 31.2704 14.6435 31.4532 15.5134C31.9599 17.9267 31.1821 20.6703 32.0284 23.0131C32.1838 23.4432 32.4481 23.8515 32.8421 24.1014C33.2719 24.374 33.7 24.3473 34.1758 24.2379C34.8258 24.0887 35.4559 23.5237 35.798 22.9655C36.9022 21.1628 36.4776 18.3472 35.9985 16.3887C34.9608 12.1458 32.3205 8.51183 28.5772 6.24427C25.9884 4.67613 23.2445 4.0353 20.2411 3.97466Z" fill="#0B7CAC"/>
</g>
<defs>
<clipPath id="clip0_131_6189">
<rect width="231.236" height="39.8169" fill="white" transform="translate(0.719849 0.0913696)"/>
</clipPath>
</defs>
</svg>
