<svg width="25" height="24" viewBox="0 0 25 24" fill="none" xmlns="http://www.w3.org/2000/svg">
<path d="M15.7399 2H11.8458C10.0815 1.99999 8.68412 1.99997 7.59048 2.1476C6.46495 2.29953 5.55396 2.61964 4.83553 3.34096C4.1171 4.06227 3.79827 4.97692 3.64695 6.10697C3.49991 7.205 3.49992 8.60802 3.49994 10.3793V16.2169C3.49994 17.725 4.41989 19.0174 5.72711 19.5592C5.65982 18.6498 5.65988 17.3737 5.65994 16.312L5.65994 11.3976L5.65994 11.3024C5.65986 10.0207 5.6598 8.91644 5.77822 8.03211C5.90513 7.08438 6.19132 6.17592 6.92524 5.43906C7.65915 4.70219 8.56398 4.41485 9.50792 4.28743C10.3887 4.16854 11.4886 4.1686 12.7651 4.16867L12.8599 4.16868H15.7399L15.8347 4.16867C17.1113 4.1686 18.2088 4.16854 19.0896 4.28743C18.5626 2.94779 17.2615 2 15.7399 2Z" fill="black"/>
<path d="M7.10004 11.3974C7.10004 8.67119 7.10004 7.3081 7.94357 6.46118C8.7871 5.61426 10.1447 5.61426 12.86 5.61426H15.74C18.4553 5.61426 19.813 5.61426 20.6565 6.46118C21.5 7.3081 21.5 8.6712 21.5 11.3974V16.2167C21.5 18.9429 21.5 20.306 20.6565 21.1529C19.813 21.9998 18.4553 21.9998 15.74 21.9998H12.86C10.1447 21.9998 8.7871 21.9998 7.94357 21.1529C7.10004 20.306 7.10004 18.9429 7.10004 16.2167V11.3974Z" fill="black"/>
</svg>
