<svg width="225" height="46" viewBox="0 0 225 46" fill="none" xmlns="http://www.w3.org/2000/svg">
<g clip-path="url(#clip0_131_6159)">
<path d="M196.946 12.6975L207.344 12.6959L207.367 14.4581L199.208 14.4814L199.226 20.3405L206.788 20.367L206.803 22.2482L199.174 22.2806L199.091 22.6165L199.109 28.1201L207.46 28.1256L207.484 30.1171L196.965 30.1119L196.946 12.6975Z" fill="#0B7CAC"/>
<path d="M164.062 12.6963L174.513 12.6898L174.544 14.465L166.304 14.4759L166.322 20.3755L173.958 20.3988C173.966 20.8622 174.097 21.8023 173.928 22.2063L168.87 22.1876C168.054 22.1916 167.135 22.1252 166.334 22.265L166.309 22.726L166.321 28.1686L174.643 28.2416L174.655 30.183L164.104 30.1884L164.062 12.6963Z" fill="#0B7CAC"/>
<path d="M149.462 12.6973L159.938 12.6899L159.96 14.4643L151.725 14.4814L151.743 20.374L159.419 20.3851L159.45 22.2112L155.24 22.187C154.099 22.185 152.904 22.1308 151.771 22.2563L151.734 22.6165L151.746 28.1674L160.061 28.2386C160.065 28.8005 160.182 29.6562 160.019 30.1797L149.495 30.1785L149.462 12.6973Z" fill="#0B7CAC"/>
<path d="M122.34 12.2947C123.991 12.1121 125.722 12.4468 127.145 13.3195C128.967 14.4361 129.786 16.0106 130.269 18.0342C129.735 18.1459 129.071 18.2942 128.556 18.0548C127.867 17.7348 127.543 16.6147 127.078 16.0252C126.555 15.3606 125.761 14.9146 124.972 14.6401C123.665 14.1853 121.966 14.3594 120.734 14.9588C119.359 15.6275 118.466 16.8026 117.979 18.2356C117.225 20.4499 117.298 23.1979 118.338 25.3124C118.997 26.6546 120.007 27.6396 121.435 28.1251C122.95 28.6397 124.396 28.4337 125.804 27.7373C126.325 27.4002 126.812 27.0626 127.177 26.5505C127.554 26.0207 127.873 25.2481 128.377 24.8317C128.602 24.6451 128.927 24.6083 129.209 24.6355C129.563 24.6696 129.908 24.6929 130.135 24.9711C129.968 25.9792 129.665 26.7913 129.077 27.6337C127.982 29.1999 126.258 30.108 124.411 30.4307C122.47 30.7698 120.39 30.2507 118.788 29.1165C116.735 27.6634 115.845 25.4284 115.433 23.0227C114.99 20.4338 115.545 17.4853 117.066 15.3346C118.367 13.4958 120.188 12.6668 122.34 12.2947Z" fill="#0B7CAC"/>
<path d="M105.481 12.2994C106.949 12.1081 108.679 12.4143 109.934 13.2265C111.14 14.0071 111.886 15.1418 112.185 16.5332C112.23 16.7427 112.261 16.7825 112.141 16.9675L111.376 17.0719C110.276 17.1028 109.776 15.9361 109.085 15.2735C108.309 14.5295 107.186 14.2482 106.13 14.2757C105.101 14.3025 103.805 14.6958 103.086 15.4662C102.583 16.0042 102.362 16.6789 102.401 17.4141C102.429 17.9348 102.664 18.441 103.069 18.7749C103.704 19.298 104.547 19.5323 105.313 19.7948C107.183 20.4358 109.719 21.0179 111.2 22.3556C112.028 23.1041 112.533 24.157 112.583 25.2756C112.638 26.4762 112.23 27.6294 111.414 28.5158C110.127 29.9146 108.259 30.4775 106.411 30.5551C105.523 30.5569 104.73 30.5047 103.87 30.2749C101.41 29.6163 100.484 27.7937 99.2946 25.743L100.984 25.7489C101.145 25.7501 101.49 25.7069 101.634 25.7543C101.855 25.8273 102.098 26.2324 102.236 26.4119C102.618 26.9083 103.004 27.4093 103.517 27.7776C104.585 28.5433 105.789 28.7137 107.073 28.4935C108.151 28.3091 109.314 27.7783 109.955 26.8554C110.27 26.4011 110.512 25.7452 110.414 25.1942C110.062 23.211 108.053 22.8533 106.426 22.3699C104.985 21.9416 103.186 21.5282 101.953 20.6571C101.122 20.0697 100.519 19.1317 100.348 18.1258C100.134 16.8765 100.417 15.5211 101.15 14.486C102.134 13.0958 103.887 12.5669 105.481 12.2994Z" fill="#0B7CAC"/>
<path d="M178.888 12.6499C179.168 12.5521 179.454 12.5564 179.746 12.5865C180.29 12.6425 180.724 12.9488 181.091 13.3379C182.034 14.3378 182.805 15.747 183.596 16.8842C185.801 20.0557 187.946 23.4053 190.379 26.4006L190.399 12.6865L192.449 12.6999L192.466 25.9574C192.466 26.7308 192.663 29.4225 192.376 29.9458L192.282 30.0984C192.015 30.2774 191.609 30.2623 191.297 30.2334C190.767 30.1842 190.312 29.901 189.948 29.5251C189.02 28.5675 188.279 27.1987 187.515 26.0969C185.296 22.8978 183.16 19.4904 180.672 16.4975L180.655 30.1298L178.637 30.1142L178.531 13.389C178.54 13.0183 178.634 12.891 178.888 12.6499Z" fill="#0B7CAC"/>
<path d="M65.6348 12.7523L77.2565 12.7248L77.3057 15.6497L69.3596 15.6697L69.3786 19.6253L76.6971 19.6636L76.7089 22.9818C74.3162 22.7212 71.6991 22.9149 69.2842 22.9605L69.1751 24.7913C69.1726 25.1667 69.1543 26.4441 69.4281 26.7109C69.617 26.8952 69.8641 26.9968 70.1218 27.0408C70.9157 27.1761 71.9207 27.0651 72.7374 27.0693L77.3297 27.1338L77.3564 30.202L65.6573 30.1827L65.6348 12.7523Z" fill="#0B7CAC"/>
<path d="M79.6317 12.6275L82.7928 12.6324C83.0807 12.648 83.7598 12.6651 83.9591 12.8901C84.5663 13.576 84.9971 14.3732 85.4665 15.1554L87.5538 18.5424C87.7623 18.4164 88.0496 17.7658 88.1842 17.5335L89.7593 14.8489C90.0719 14.3082 90.3899 13.6305 90.8368 13.1905C91.0015 13.0283 91.3386 12.717 91.5511 12.634C91.8224 12.528 92.3697 12.5505 92.6674 12.5489L95.3567 12.5771C94.4726 14.5168 93.101 16.435 91.9626 18.2495C91.3418 19.2392 90.6575 20.1753 90.3467 21.3152C90.5811 22.6455 91.5706 23.8274 92.2755 24.9516L95.5902 30.2955C94.4778 30.1666 93.3349 30.3336 92.2302 30.1011C90.7317 29.7858 89.9703 28.2035 89.2308 27.003L87.4828 24.2236C86.8962 25.3574 86.1456 26.4476 85.4863 27.5424C85.1054 28.175 84.7614 28.9724 84.2786 29.5266C84.0447 29.7949 83.7301 30.0358 83.3933 30.1562C82.6731 30.4137 81.3171 30.2433 80.5291 30.2361C80.2581 30.2336 79.8129 30.289 79.5792 30.176C80.5843 28.2759 81.8347 26.4458 82.9968 24.6377C83.5159 23.83 84.448 22.7325 84.6832 21.8005C84.7705 21.4549 84.7357 21.0514 84.6001 20.7237C84.2633 19.9097 83.5906 19.0729 83.1217 18.3197L79.6317 12.6275Z" fill="#0B7CAC"/>
<path d="M224.064 30.0333C223.518 30.1612 222.846 30.3207 222.287 30.3021C222.03 30.2935 221.744 30.1594 221.551 29.9908C221.144 29.6364 220.882 29.0755 220.624 28.6103L219.383 26.2957C219.048 25.6183 218.759 24.8776 218.24 24.317C216.988 22.9652 215.208 23.3886 213.559 23.3259L213.564 30.1968L211.526 30.177L211.491 12.6832L217.353 12.799C218.227 12.8407 219.192 12.8397 220.05 13.0046C221.036 13.1941 221.866 13.7841 222.425 14.609C223.287 15.8803 223.601 17.7524 223.313 19.2492C222.967 21.0428 221.618 22.0813 220.192 23.0479L222.709 27.6522C223.096 28.36 223.479 29.329 224.042 29.9042L224.064 29.9272V30.0333ZM215.262 14.6117C214.714 14.6443 214.142 14.7111 213.596 14.6771L213.63 21.3484C215.595 21.3912 217.501 21.5348 219.398 20.957C220.239 20.425 220.931 19.8226 221.167 18.8088C221.398 17.8162 221.186 16.7387 220.644 15.8766C220.251 15.2516 219.688 14.9266 218.981 14.7704C217.793 14.508 216.473 14.5322 215.262 14.6117Z" fill="#0B7CAC"/>
<path d="M133.895 12.6964L138.658 12.6945C139.799 12.701 140.977 12.6751 142.101 12.8979C143.25 13.1259 144.286 13.7805 144.938 14.7626C145.762 16.0015 146.01 17.7489 145.719 19.1937C145.332 21.1158 144.145 22.0226 142.606 23.0439C143.572 24.5946 144.399 26.3012 145.273 27.9109C145.588 28.4916 146.263 29.4353 146.296 30.064C146.021 30.2586 145.622 30.297 145.292 30.314C144.593 30.3501 144.064 29.9836 143.571 29.5397C142.341 27.976 141.904 25.7022 140.561 24.2407C140.052 23.686 139.351 23.3606 138.603 23.3282C137.996 23.302 136.708 23.245 136.238 23.6762C135.939 24.3281 136.026 25.3775 136.02 26.0974L136.007 30.1258L133.912 30.106L133.895 12.6964ZM137.04 14.7326L136.133 14.8189C136.005 15.4813 136.088 16.2735 136.089 16.956L136.098 21.2334C137.807 21.3796 140.637 21.688 142.175 20.8509C143.013 20.185 143.49 19.5098 143.614 18.4282C143.722 17.4747 143.61 16.5084 142.993 15.7374C142.496 15.1157 141.825 14.8419 141.053 14.7617L137.04 14.7326Z" fill="#0B7CAC"/>
<path d="M47.818 12.3604L53.2203 12.6598C55.3546 12.8093 57.9771 12.7662 59.7278 14.1849C61.5161 15.6339 62.5078 17.9359 62.7371 20.1919C63.0173 22.9449 62.257 25.715 60.5068 27.8688L60.3809 27.9989C58.1183 30.3039 54.9465 30.2025 51.9345 30.2329L47.8351 30.3071L47.818 12.3604ZM51.6817 15.7055L51.685 26.9446C53.6996 26.9585 55.8383 27.2793 57.4273 25.7778C58.488 24.5477 59.1666 22.7463 59.0511 21.1054C58.9468 19.6271 58.3077 17.7127 57.1604 16.7217C55.795 15.5419 53.3625 16.0287 51.6817 15.7055Z" fill="#0B7CAC"/>
<path d="M9.85163 13.6356C10.4911 13.6469 13.871 15.988 14.5855 16.5082L14.6059 16.6808L14.2549 16.8263C13.2538 17.1497 12.1588 17.311 11.1578 16.8853C10.5023 16.6065 9.94803 16.1797 9.684 15.492C9.47497 14.9475 9.61921 14.1478 9.85163 13.6356Z" fill="#0B7CAC"/>
<path d="M27.6322 13.6356L27.9045 13.6955C28.1098 14.1332 28.2038 14.8549 28.0722 15.3277C27.8956 15.9611 27.4111 16.4566 26.8458 16.765C25.8951 17.2835 24.7503 17.2022 23.7454 16.9078C23.5412 16.8353 23.3556 16.7053 23.1713 16.5928L23.1943 16.432L27.6322 13.6356Z" fill="#0B7CAC"/>
<path d="M18.5843 16.1047C19 16.1298 19.4151 16.1572 19.8027 16.3241C21.1556 16.9069 22.2049 18.3722 22.3487 19.8307C22.4525 20.8831 22.3358 21.9291 22.7443 22.9342C23.1715 23.9853 24.083 24.3747 25.0625 24.7896C24.0125 25.4544 23.1216 26.1479 22.3256 27.1156C20.6795 29.1171 19.8909 31.7059 19.0486 34.1164C19.0178 34.2502 18.9502 34.3435 18.8728 34.454L16.888 29.7037C16.416 28.6684 15.9376 27.6194 15.1741 26.7619C14.4933 25.9972 13.659 25.4346 12.8217 24.8594C13.4865 24.4477 14.2104 24.0492 14.71 23.434C15.4727 22.4949 15.223 21.2224 15.3177 20.1059C15.3775 19.4015 15.6188 18.6747 15.994 18.0754C16.5898 17.1236 17.4783 16.3579 18.5843 16.1047Z" fill="#0B7CAC"/>
<path d="M17.7136 0.262658C21.274 -0.0832765 24.7313 1.04996 27.6911 2.99405C28.4738 3.50826 29.4401 4.37871 30.3287 4.64499C31.3985 4.96555 32.6808 3.86188 33.6011 3.36254C32.9979 4.26812 32.4632 5.22335 31.8096 6.09443C30.0791 8.39968 27.9804 10.4171 25.6181 12.0669C24.602 12.7766 22.5934 14.3922 21.3501 14.2699C20.657 14.2018 19.9006 13.8627 19.1882 13.7356C18.029 13.6587 16.6709 14.5451 15.635 14.218C14.8079 13.957 13.8468 13.2464 13.1142 12.7696C9.13923 10.183 6.11704 7.05893 3.95319 2.81111C4.72223 3.40748 6.01532 4.66505 6.98861 4.76827C7.98271 4.87373 9.71488 3.29235 10.5442 2.7246C11.075 2.36115 11.624 2.04717 12.209 1.77929C13.975 0.97057 15.787 0.475705 17.7136 0.262658Z" fill="#0B7CAC"/>
<path d="M18.8453 45.9996C18.1311 44.865 12.8467 36.1295 12.4767 35.9638L8.56783 39.5238L4.81661 33.5228L0.0887451 37.2409C1.00551 34.0207 2.11078 31.0065 2.58348 27.666C2.9703 24.9323 3.13172 22.1079 3.23354 19.3494C3.31609 17.113 3.23008 14.7574 3.75245 12.5695C4.08518 11.1759 4.68291 9.91799 5.33317 8.65023C5.97704 9.38098 7.69766 10.9552 7.63719 11.9219C7.5144 13.8849 6.61508 16.018 8.10889 17.7077C8.54233 18.198 9.10209 18.5658 9.69901 18.8269C10.2429 19.0649 12.4762 19.4743 12.6945 19.8784C12.829 20.1274 12.8515 20.5426 12.8365 20.8189C12.8047 21.4049 12.5837 21.903 12.1444 22.2969C11.6921 22.7025 11.0824 22.9673 10.5536 23.2596L7.78214 24.8287C9.1432 25.6356 10.671 26.1639 11.9226 27.1351C13.9695 28.723 14.9333 30.8771 15.7578 33.2498L17.5866 38.7819C17.9853 39.9996 18.3505 41.2758 18.9522 42.4097C19.5605 39.9905 20.4736 37.6218 21.3065 35.2726C22.0029 33.3087 22.6049 31.1012 23.7305 29.3393C24.4118 28.2729 25.4197 27.3 26.5037 26.6496L29.8819 24.8732C28.4606 23.3743 24.8069 23.1076 24.8467 20.5198C24.8506 20.2608 24.9248 20.0522 25.0646 19.8363C25.5525 19.5021 26.3296 19.4523 26.9063 19.3011C28.6971 18.8315 30.1874 17.5312 30.5398 15.6633C30.8331 14.1099 29.5958 12.3016 30.3961 10.9523C30.889 10.1217 31.7932 9.46247 32.356 8.63873C33.215 10.1993 33.9045 11.8793 34.2079 13.6427C34.45 15.0492 34.3714 16.5359 34.385 17.9606C34.4092 20.5345 34.3979 23.2028 34.6828 25.7613C35.1227 29.7113 36.3771 33.7452 37.8543 37.4279L32.8972 33.505L29.1368 39.5322L25.1632 35.9242L20.9914 42.6127C20.3184 43.6873 19.4456 44.8432 18.9295 45.9996H18.8453Z" fill="#0B7CAC"/>
</g>
<defs>
<clipPath id="clip0_131_6159">
<rect width="224.064" height="45.9997" fill="white"/>
</clipPath>
</defs>
</svg>
