<svg width="147" height="46" viewBox="0 0 147 46" fill="none" xmlns="http://www.w3.org/2000/svg">
<g clip-path="url(#clip0_131_6177)">
<path d="M23.749 37.5162C24.3811 37.441 24.884 37.5835 25.4458 37.8614C26.2051 38.2369 30.3236 40.2411 30.4623 40.6516C30.2425 40.9358 29.8532 41.1126 29.5381 41.2758L27.893 42.1013L23.381 44.357C22.5241 44.7837 21.5926 45.3888 20.687 45.669C19.5923 46.0078 18.1216 44.9543 17.1708 44.449L12.8028 42.2062C11.7959 41.6797 10.6957 41.262 9.87976 40.4488C10.9553 39.8271 12.2653 39.3824 13.4197 38.9063C14.3719 38.5136 15.4189 37.9643 16.4287 37.765C16.7628 37.699 17.0771 37.7455 17.4019 37.8382C18.379 38.1174 19.076 38.8279 20.1865 38.7468C20.7448 38.706 21.3645 38.55 21.8746 38.3254C22.514 38.0437 23.0587 37.6794 23.749 37.5162Z" fill="#0B7CAC"/>
<path d="M19.8444 0.123657H20.3963C20.7342 0.301104 21.1088 0.420583 21.4521 0.59871L26.8652 3.46202C28.1608 4.13851 29.5601 4.7622 30.7089 5.6701L26.307 7.62689C25.5579 7.96183 24.781 8.42872 23.9985 8.65973C23.6442 8.76432 23.2799 8.82479 22.9211 8.7134C21.8445 8.37919 21.2617 7.49095 19.9894 7.56131C19.5846 7.58369 19.1159 7.67571 18.7547 7.86055C18.1882 8.1504 17.5997 8.68961 16.9419 8.71812C16.0054 8.75876 13.9161 7.43221 13.0374 6.98357C12.0265 6.46745 10.7242 6.00496 9.88403 5.24473L15.7367 2.11593C17.0921 1.40797 18.4265 0.699066 19.8444 0.123657Z" fill="#0B7CAC"/>
<path d="M39.618 22.8566C39.688 22.8527 39.7731 22.8446 39.8386 22.874C39.8846 22.8948 39.9796 22.945 39.9952 22.9914C40.1947 23.588 40.1191 24.3539 40.12 24.9803L40.1238 28.0422L40.124 32.4874L40.1215 34.2406C40.1173 34.6301 40.1356 35.0545 39.9551 35.4106C39.8458 35.6265 39.6437 35.813 39.4493 35.9512C38.8335 36.3889 38.0735 36.7208 37.4031 37.0767C36.471 37.5716 35.4325 38.2265 34.4297 38.5413C34.1687 38.6231 33.9558 38.6048 33.6998 38.5153C32.6268 38.1401 31.5665 37.4603 30.5518 36.9362L23.2179 33.0918C22.2567 32.6014 21.2948 32.156 20.4767 31.4418C21.4178 31.098 22.3779 30.6395 23.265 30.1763C24.0896 29.7457 24.8137 29.2407 25.7421 29.0409C27.9501 28.5655 29.7067 29.9191 31.523 30.9385C32.2338 31.3376 33.0032 31.669 33.685 32.1102C33.6593 31.7084 33.735 31.2822 33.773 30.8806L33.9279 28.9175C33.9778 28.0922 33.9093 27.2585 33.9867 26.4367C34.0124 26.1659 34.0379 25.8147 34.1863 25.5793C34.3263 25.3569 34.5328 25.1579 34.7502 25.0119C35.3722 24.594 36.1371 24.3196 36.8212 24.0103C37.7154 23.6059 38.6644 23.0801 39.618 22.8566Z" fill="#0B7CAC"/>
<path d="M141.07 17.7614C142.392 17.6433 143.668 17.8524 144.898 18.3537C145.241 18.4936 145.559 18.6277 145.71 18.9903C145.789 19.7566 145.05 20.9516 144.627 21.5768C143.771 21.2186 142.559 20.8069 141.637 20.9874C141.434 21.0271 141.312 21.1013 141.199 21.275C141.063 21.4834 140.971 21.7861 141.027 22.0331C141.069 22.2186 141.134 22.3109 141.292 22.4199C141.699 22.7003 142.222 22.8451 142.681 23.02C143.502 23.3331 144.424 23.6905 145.161 24.1714C145.913 24.6618 146.286 25.3535 146.468 26.2149C146.721 27.4079 146.453 28.7847 145.783 29.7974C145.168 30.7278 144.114 31.4262 143.021 31.6423C141.846 31.8746 140.528 31.857 139.362 31.5914C138.935 31.4942 138.448 31.2877 138.016 31.2704C137.513 31.2506 136.93 31.4158 136.415 31.4475C135.193 31.5231 133.946 31.4633 132.72 31.4752C132.109 31.4811 131.478 31.585 130.87 31.533C130.589 31.5093 130.258 31.4645 130.02 31.3055C129.902 31.1628 129.839 31.0154 129.81 30.8334C129.734 30.3521 129.788 29.7944 129.788 29.3028L129.782 26.4095L129.784 20.4942C129.785 20.027 129.651 18.6455 129.881 18.2894C129.955 18.1751 130.112 18.1212 130.243 18.1037C130.558 18.0618 130.917 18.0928 131.236 18.0949C131.713 18.098 132.869 17.9803 133.248 18.283C133.344 18.36 133.378 18.5126 133.392 18.6323C133.477 19.3347 133.422 20.0934 133.422 20.803L133.421 25.0444C133.422 25.9045 133.385 26.7864 133.471 27.6424C133.483 27.7682 133.506 27.9908 133.61 28.0717C133.863 28.2705 134.319 28.2497 134.628 28.2542C135.4 28.2648 136.364 28.3482 137.111 28.155C137.451 28.0672 137.806 27.8751 138.128 27.7331C138.173 27.7131 138.358 27.6114 138.397 27.6139C138.5 27.6206 138.864 27.8815 138.981 27.9404C139.686 28.2948 140.812 28.6249 141.595 28.5161C141.897 28.4743 142.131 28.3128 142.314 28.0739C142.458 27.8855 142.572 27.6891 142.532 27.4423C142.379 26.4733 140.663 26.1419 139.885 25.8526C139.332 25.6471 138.778 25.4163 138.303 25.0622C137.653 24.5792 137.277 23.9641 137.164 23.1642C136.983 21.8844 137.182 20.4573 137.976 19.4072C138.746 18.3892 139.835 17.9289 141.07 17.7614Z" fill="#0B7CAC"/>
<path d="M0.18549 10.6952C0.569825 9.68156 2.01808 9.20919 2.93302 8.76443L4.69863 7.90221C5.58499 7.50431 6.21774 7.36552 7.15005 7.72093C7.97825 8.03665 8.76836 8.52281 9.55573 8.93166L12.8548 10.601C15.2077 11.8148 17.762 12.8769 19.93 14.3984C18.9794 14.9246 17.973 15.3346 16.9942 15.8045C15.9958 16.2839 14.9513 16.988 13.8592 17.2012C13.389 17.2931 12.9649 17.2139 12.5106 17.0829C11.7584 16.8661 11.0439 16.3761 10.362 15.9968C9.06318 15.2743 7.79037 14.5216 6.42513 13.929L6.41883 17.9224C6.41539 18.6168 6.47484 19.4498 6.34278 20.1273C6.30633 20.3143 6.19415 20.4877 6.06092 20.6214C5.55811 21.1261 4.38635 21.4616 3.71322 21.7555L1.78652 22.6134C1.39351 22.7907 0.947232 23.0531 0.506872 23.0517C0.436259 23.0515 0.334013 22.9775 0.283503 22.9252C0.252273 22.8929 0.230358 22.8555 0.210225 22.8158L0.064209 22.756V10.6492L0.18549 10.6952ZM0.064209 10.6492V22.756L0.210225 22.8158C0.221674 22.5046 0.164822 22.1573 0.168582 21.834L0.186425 16.9118L0.18549 10.6952L0.064209 10.6492Z" fill="#0B7CAC"/>
<path d="M0.064209 10.6492L0.18549 10.6952L0.186425 16.9118L0.168582 21.834C0.164822 22.1573 0.221674 22.5046 0.210225 22.8158L0.064209 22.756V10.6492Z" fill="#0B7CAC"/>
<path d="M45.8253 14.1214C46.0063 14.0794 46.1921 14.0534 46.3783 14.052L49.5914 14.1354C52.5668 14.1952 55.7042 14.205 57.9567 16.4382C59.7205 18.1872 60.4716 20.319 60.477 22.7816C60.4832 25.4 59.5672 27.5753 57.7324 29.419C57.3354 29.7902 56.8853 30.1209 56.4196 30.4006C55.51 30.9471 54.4689 31.3483 53.425 31.5459C52.5341 31.7145 51.649 31.6797 50.75 31.6658L48.1194 31.6532L46.5898 31.6527C46.3469 31.652 46.0627 31.6811 45.8283 31.6159C45.7308 31.5886 45.5572 31.4924 45.5063 31.4024C45.3737 31.1675 45.3067 30.9575 45.2899 30.6877C45.2286 29.7182 45.2728 28.7233 45.2721 27.7509L45.2706 22.389L45.2728 17.3413C45.2736 16.5212 45.1375 15.4092 45.372 14.6294C45.4581 14.3439 45.5716 14.2574 45.8253 14.1214ZM50.0568 17.773C49.8402 17.9301 49.7771 18.0337 49.7319 18.3031C49.6614 18.7241 49.7027 19.2155 49.7014 19.6446L49.6972 22.0762L49.696 25.2283C49.6965 25.8046 49.6619 26.4137 49.722 26.9867C49.7482 27.2392 49.8127 27.5202 49.969 27.7259C50.1303 27.9381 50.3432 28.0103 50.5895 28.0754C50.8853 28.1535 51.2021 28.0853 51.4994 28.0417C52.2611 27.9299 53.0745 27.7682 53.7425 27.3663C54.0064 27.2076 54.2816 27.0221 54.5092 26.8146C55.6196 25.671 56.1112 24.1805 56.0855 22.607C56.0645 21.3143 55.4438 20.0115 54.523 19.1197C53.4425 18.073 51.9097 17.7071 50.4357 17.7334C50.3093 17.7357 50.179 17.7388 50.0568 17.773Z" fill="#0B7CAC"/>
<path d="M106.857 17.6951C107.942 17.6657 109.047 17.7974 110.055 18.2148C111.504 18.815 112.704 19.8811 113.48 21.2467C113.872 21.9362 114.151 22.6933 114.454 23.4248C114.831 22.291 115.438 20.9124 116.248 20.0198C117.577 18.5573 119.375 17.823 121.334 17.7365C123.342 17.6479 125.533 18.1894 127.046 19.5784C128.369 20.7932 129.163 22.4612 129.234 24.2671C129.315 26.3111 128.821 28.0049 127.414 29.5194C126.018 31.0221 124.207 31.7089 122.191 31.785C120.736 31.7935 119.379 31.6295 118.074 30.9444C116.236 29.9792 115.064 28.1199 114.463 26.1817C114.003 27.3231 113.558 28.4493 112.764 29.4086C111.538 30.8908 109.922 31.5753 108.036 31.7512C105.899 31.9505 103.737 31.5172 102.063 30.1221C100.71 28.9954 99.8651 27.2894 99.7113 25.5415C99.5416 23.6129 100.062 21.6402 101.317 20.1449C102.732 18.4588 104.743 17.8774 106.857 17.6951ZM121.508 21.3396C120.359 21.5378 119.51 21.9382 118.823 22.9157C118.365 23.5682 118.157 24.4707 118.296 25.2551C118.466 26.2092 118.981 27.0421 119.787 27.5961C120.538 28.1127 121.446 28.2864 122.344 28.2042C123.437 27.9705 124.339 27.4754 124.959 26.5079C125.422 25.7868 125.608 25.0248 125.421 24.194C125.196 23.1951 124.596 22.4183 123.735 21.8749C123.1 21.4748 122.256 21.2725 121.508 21.3396ZM106.766 21.3373C105.622 21.5314 104.733 21.9498 104.043 22.9304C103.569 23.6031 103.357 24.5383 103.507 25.3478C103.674 26.2549 104.282 27.073 105.036 27.5919C105.752 28.0845 106.611 28.2965 107.475 28.2129C108.555 28.0346 109.431 27.56 110.073 26.6558C110.487 26.0729 110.795 25.148 110.67 24.4328C110.505 23.4878 110.023 22.5798 109.221 22.0269C108.464 21.5046 107.677 21.3057 106.766 21.3373Z" fill="#0B7CAC"/>
<path d="M0.18648 28.8052C0.502551 27.9648 1.27785 27.597 2.04913 27.2474L22.621 17.9704L28.5251 15.3046C29.6778 14.7828 30.9101 14.319 31.9788 13.6375L27.4366 10.9002C28.989 10.0454 30.5649 9.32336 32.1791 8.59667C32.7684 8.33133 33.4218 7.96217 34.0463 7.8029C34.4405 7.70227 34.8332 7.69824 35.224 7.81361C36.0141 8.0468 36.7924 8.53736 37.5294 8.91043C38.1069 9.20272 38.7534 9.45609 39.2804 9.82854C39.4802 9.96966 39.6672 10.1462 39.7839 10.3638C39.8771 10.538 39.9152 10.738 39.9308 10.9333C40.0359 12.245 39.9447 13.6258 39.9481 14.9448C39.9499 15.6814 40.1057 16.7918 39.891 17.4872C39.7614 17.9073 39.4762 18.197 39.0909 18.396L8.09604 32.4688L12.5919 35.1435L9.04822 36.7769C8.13091 37.2132 7.30034 37.8364 6.29455 38.0585C5.55193 38.2225 4.74849 38.1572 4.03081 37.9148C3.49256 37.733 2.97677 37.4479 2.47477 37.1845C1.55219 36.701 0.624082 36.2734 0.064209 35.3433V35.2696V28.7606L0.18648 28.8052ZM0.064209 28.7606V35.2696C0.317824 34.7757 0.186037 33.6265 0.185786 33.052L0.18648 28.8052L0.064209 28.7606Z" fill="#0B7CAC"/>
<path d="M0.064209 28.7607L0.18648 28.8052L0.185786 33.052C0.186037 33.6265 0.317824 34.7758 0.064209 35.2696V28.7607Z" fill="#0B7CAC"/>
<path d="M62.4122 14.0485L75.3958 14.0826C75.8029 14.115 76.2278 14.2436 76.5567 14.4941C77.196 14.9807 77.6555 15.764 78.119 16.4112C78.7949 17.355 79.4691 18.3216 80.2211 19.2065L82.1356 16.6075C82.6559 15.8838 83.1194 14.9268 83.8677 14.4196C84.2058 14.1905 84.4915 14.1037 84.8968 14.0649C85.6516 13.9925 86.4489 14.0412 87.2094 14.0435L91.1417 14.0439L95.7698 14.0387C96.5563 14.0384 97.4951 13.9449 98.2605 14.1054C99.3217 14.3279 99.7157 15.3256 100.213 16.1582L101.298 17.9231C100.437 17.9745 99.5597 17.9383 98.697 17.9395C98.263 17.9402 97.7424 17.8824 97.3368 18.0529C97.1498 18.227 97.0883 18.4405 97.0539 18.6866C96.9124 19.6996 97.0106 20.8533 97.0099 21.8816L97.0156 27.8899C97.0294 28.9164 97.2008 30.0605 96.9819 31.0688C96.9443 31.2419 96.8892 31.4588 96.7289 31.5567L96.701 31.5733L96.6723 31.5911C96.214 31.8651 95.0175 31.6549 94.4811 31.6561C94.0082 31.6571 93.4088 31.7749 92.9525 31.6522C92.7029 31.5849 92.5543 31.4524 92.4766 31.2073C92.2556 30.5106 92.3886 29.3938 92.3874 28.6508L92.3896 22.8279L92.444 19.8369C92.4438 19.3687 92.486 18.6937 92.237 18.2835C92.0881 18.038 91.8645 17.9835 91.6054 17.9183C91.1802 17.8509 90.7269 17.8941 90.2978 17.9144C89.959 17.9305 89.3994 17.8931 89.1434 17.6455C88.6453 17.1641 88.7234 15.4872 88.7299 14.7955C87.6395 15.9783 86.7242 17.4637 85.7807 18.7734L84.1398 21.0425C83.7154 21.6288 83.2715 22.1967 82.9851 22.8661C83.3167 23.7773 84.0631 24.6144 84.625 25.4024L87.0578 28.8071C87.7305 29.742 88.4242 30.6627 88.9873 31.6697C87.9093 31.5768 86.7749 31.6512 85.6902 31.6557C85.2623 31.6574 84.7858 31.6955 84.3633 31.628C84.0861 31.5834 83.8118 31.3836 83.6155 31.1905C83.135 30.7176 82.7437 30.0553 82.35 29.507L80.2192 26.5717L78.1845 29.2857C77.7574 29.8874 77.3607 30.5994 76.8414 31.119C76.6329 31.328 76.3858 31.4699 76.1074 31.5651C75.2875 31.8453 74.2211 31.67 73.3639 31.6564L70.1068 31.6527L62.5992 31.7024C62.3581 31.692 62.0808 31.6767 61.8637 31.559C61.6955 31.4679 61.6233 31.3287 61.5776 31.1529C61.4292 30.5846 61.5231 29.8038 61.5229 29.2088L61.5222 25.1677L61.5251 18.2821C61.5259 17.1496 61.4695 15.9819 61.5335 14.853C61.5456 14.638 61.6092 14.4813 61.7163 14.2971C61.9473 14.1268 62.135 14.089 62.4122 14.0485ZM71.6862 15.0522C71.6852 15.628 71.8432 17.0465 71.4366 17.4598C70.7397 18.1685 66.6657 17.3689 66.1108 17.942C65.7564 18.3081 65.7509 19.2601 65.7376 19.7386C65.7289 20.0481 65.7759 20.3983 65.996 20.6349C66.1996 20.8539 66.5136 20.9349 66.8042 20.9428C67.4094 20.9595 69.9377 20.7585 70.2799 21.1115C70.5935 21.435 70.4867 23.1727 70.4592 23.6619C70.4474 23.8697 70.4261 24.0803 70.2629 24.229C70.0843 24.3916 69.6837 24.3708 69.445 24.3803L67.198 24.4571C66.8913 24.469 66.4004 24.4713 66.1405 24.6588C65.8983 24.8333 65.8222 25.2474 65.8016 25.5276C65.7532 26.1889 65.674 27.1821 65.9535 27.7969C66.2394 28.0313 66.6662 27.9945 67.0152 27.9969L69.4698 27.9987C70.1049 28.0068 70.8621 27.9131 71.4228 28.2556C71.841 28.73 71.7015 30.341 71.6607 30.978L71.6565 31.0396C72.8906 29.5953 73.9439 27.9129 75.0357 26.3546C75.7346 25.3572 76.5673 24.35 77.1552 23.2909C77.2309 23.1546 77.2744 23.0117 77.2902 22.8566C77.0946 22.165 76.5043 21.4933 76.0915 20.912L74.0376 18.0258C73.3434 17.0508 72.6653 15.8913 71.8484 15.0263L71.6862 15.0522Z" fill="#0B7CAC"/>
</g>
<defs>
<clipPath id="clip0_131_6177">
<rect width="146.656" height="45.7523" fill="white" transform="translate(0.064209 0.123657)"/>
</clipPath>
</defs>
</svg>
