<svg width="138" height="27" viewBox="0 0 138 27" fill="none" xmlns="http://www.w3.org/2000/svg">
<path d="M46.7496 14.7873H51.9508C52.6821 14.7873 53.2747 15.4144 53.2747 16.1802C53.2747 16.9526 52.6821 17.5731 51.9508 17.5731H45.6778C45.577 17.5731 45.4824 17.6127 45.4131 17.6787L43.5217 19.3885C43.2317 19.6526 43.4082 20.1477 43.7865 20.1477H51.6355C51.6355 20.1477 51.6418 20.1477 51.6418 20.1411C51.6418 20.1345 51.6481 20.1345 51.6481 20.1345C51.749 20.1411 51.8436 20.1477 51.9445 20.1477C54.0249 20.1477 55.7145 18.3719 55.7145 16.1802C55.7145 14.1007 54.1951 12.391 52.2534 12.2259C52.2534 12.2259 52.2471 12.2259 52.2471 12.2193C52.2471 12.2127 52.2471 12.2127 52.2408 12.2127H46.6424C45.9111 12.2127 45.3185 11.5856 45.3185 10.8198C45.3185 10.0474 45.9111 9.42689 46.6424 9.42689H52.9027C53.0036 9.42689 53.1045 9.38729 53.1801 9.31467L54.9391 7.60489C55.2165 7.33423 55.0336 6.85232 54.6617 6.85232H46.7496C46.7181 6.85232 46.6803 6.85232 46.6487 6.85232C44.5683 6.85232 42.8787 8.62812 42.8787 10.8198C42.8787 13.0115 44.5683 14.7873 46.6487 14.7873C46.6803 14.7873 46.7118 14.7873 46.7496 14.7873Z" fill="white"/>
<path d="M77.0235 6.84572C76.7965 6.84572 76.6137 7.03716 76.6137 7.28142V19.7186C76.6137 19.9562 76.7965 20.1543 77.0235 20.1543H86.5432C86.6567 20.1543 86.7638 20.1015 86.8458 20.0156L88.0373 18.6756C88.2832 18.3983 88.1004 17.9428 87.7347 17.9428H79.4255C79.1985 17.9428 79.0157 17.7513 79.0157 17.5071V7.27482C79.0157 7.03716 78.8329 6.83912 78.6059 6.83912H77.0235V6.84572Z" fill="white"/>
<path fill-rule="evenodd" clip-rule="evenodd" d="M61.7794 6.84572C61.7794 6.85232 61.7794 6.85232 61.7794 6.84572C60.5626 6.90513 59.5854 7.92836 59.5287 9.20245V17.5665C59.5287 17.5995 59.5287 17.6391 59.5287 17.6721C59.5287 18.999 60.5248 20.0817 61.7794 20.1345H70.4165C71.6647 20.0751 72.6671 18.9924 72.6671 17.6721C72.6671 17.6391 72.6671 17.5995 72.6671 17.5665V9.20905C72.6167 7.93496 71.6395 6.90513 70.4228 6.85232H61.7794V6.84572ZM63.3933 9.20905C63.387 9.20905 63.387 9.20905 63.3933 9.20905C62.6305 9.24205 62.0189 9.889 61.9874 10.6944V15.9557C61.9874 15.9756 61.9874 16.002 61.9874 16.0218C61.9874 16.8535 62.6116 17.5401 63.3933 17.5731H68.8088C69.5906 17.5401 70.2147 16.8535 70.2147 16.0218C70.2147 16.002 70.2147 15.9756 70.2147 15.9557V10.6944C70.1832 9.889 69.5717 9.24866 68.8088 9.20905H63.3933Z" fill="white"/>
<path fill-rule="evenodd" clip-rule="evenodd" d="M101.876 19.7186C101.876 19.9562 102.058 20.1543 102.285 20.1543H103.899C104.126 20.1543 104.309 19.9628 104.309 19.7186V9.42689C104.309 9.39389 104.309 9.35428 104.309 9.32127C104.309 7.99438 103.319 6.91174 102.084 6.85892H93.7933C93.7618 6.85892 93.7239 6.85892 93.6924 6.85892C92.4063 6.85892 91.3661 7.96137 91.3661 9.32787C91.3661 9.36088 91.3661 9.40049 91.3661 9.4335V19.7252C91.3661 19.9628 91.5489 20.1609 91.7759 20.1609H93.3898C93.6168 20.1609 93.7996 19.9694 93.7996 19.7252V15.4408C93.7996 15.2032 93.9824 15.0051 94.2094 15.0051H101.485C101.712 15.0051 101.895 15.1966 101.895 15.4408V19.7186H101.876ZM93.787 12.6352V10.4963C93.787 9.66455 94.4237 8.9912 95.2055 8.9912H100.463C101.245 8.9912 101.882 9.66455 101.882 10.4963V12.6352C101.882 12.8729 101.699 13.0709 101.472 13.0709H94.1968C93.9698 13.0709 93.787 12.8795 93.787 12.6352Z" fill="white"/>
<path fill-rule="evenodd" clip-rule="evenodd" d="M135.951 20.1543C135.724 20.1543 135.541 19.9628 135.541 19.7186V15.4342C135.541 15.1966 135.358 14.9985 135.131 14.9985H127.774C127.547 14.9985 127.364 15.19 127.364 15.4342V19.7186C127.364 19.9562 127.182 20.1543 126.955 20.1543H125.328C125.101 20.1543 124.918 19.9628 124.918 19.7186V9.42689C124.918 9.39389 124.918 9.35428 124.918 9.32127C124.918 7.96137 125.971 6.85232 127.27 6.85232C127.301 6.85232 127.339 6.85232 127.371 6.85232H135.749C136.998 6.91174 138 7.99438 138 9.31467C138 9.34768 138 9.38729 138 9.42029V19.712C138 19.9496 137.817 20.1477 137.59 20.1477H135.951V20.1543ZM127.364 10.4963V12.6352C127.364 12.8729 127.547 13.0709 127.774 13.0709H135.131C135.358 13.0709 135.541 12.8795 135.541 12.6352V10.4963C135.541 9.66455 134.898 8.9912 134.11 8.9912H128.796C128.001 8.9912 127.364 9.66455 127.364 10.4963Z" fill="white"/>
<path d="M110.387 6.84572C110.506 6.84572 110.62 6.89853 110.695 6.99755L117.933 16.035C118.179 16.3386 118.652 16.1538 118.652 15.7511V7.28142C118.652 7.04377 118.835 6.84572 119.061 6.84572H120.675C120.902 6.84572 121.085 7.03716 121.085 7.28142V19.7186C121.085 19.9562 120.902 20.1543 120.675 20.1543H118.671C118.664 20.1543 118.658 20.1477 118.658 20.1411C118.658 20.1345 118.658 20.1345 118.652 20.1279L111.288 11.1565C111.042 10.8528 110.569 11.0443 110.569 11.4403V19.7252C110.569 19.9628 110.387 20.1609 110.16 20.1609H108.533C108.306 20.1609 108.123 19.9694 108.123 19.7252V7.28142C108.123 7.04377 108.306 6.84572 108.533 6.84572H110.387Z" fill="white"/>
<path d="M5.34838 20.6098C5.55012 20.3985 5.82121 20.2797 6.10491 20.2797H32.3629C32.842 20.2797 33.0816 20.887 32.7411 21.2369L27.5526 26.6699C27.3509 26.8812 27.0798 27 26.7961 27H0.538092C0.0589548 27 -0.180614 26.3927 0.159826 26.0428L5.34838 20.6098Z" fill="white"/>
<path d="M5.34838 0.330073C5.55012 0.118826 5.82121 0 6.10491 0H32.3629C32.842 0 33.0816 0.607335 32.7411 0.957213L27.5526 6.38362C27.3509 6.59487 27.0798 6.71369 26.7961 6.71369H0.538092C0.0589548 6.71369 -0.180614 6.10636 0.159826 5.75648L5.34838 0.330073Z" fill="white"/>
<path d="M27.5526 10.4039C27.3509 10.1927 27.0798 10.0738 26.7961 10.0738H0.538092C0.0589548 10.0738 -0.180614 10.6812 0.159826 11.0311L5.34838 16.4575C5.55012 16.6687 5.82121 16.7875 6.10491 16.7875H32.3629C32.842 16.7875 33.0816 16.1802 32.7411 15.8303L27.5526 10.4039Z" fill="white"/>
</svg>
